<?xml version="1.0" standalone="no"?>
<!DOCTYPE svg PUBLIC "-//W3C//DTD SVG 1.1//EN" "http://www.w3.org/Graphics/SVG/1.1/DTD/svg11.dtd">
<svg xmlns="http://www.w3.org/2000/svg" xmlns:xlink="http://www.w3.org/1999/xlink" viewBox="0 0 283.06 181.21"><defs><style>.cls-1{fill:#dfe8ef;}.cls-2{fill:url(#未命名的渐变_400);}.cls-3{fill:url(#未命名的渐变_400-2);}.cls-4{fill:url(#未命名的渐变_400-3);}.cls-5{fill:url(#未命名的渐变_400-4);}.cls-6{fill:none;stroke:#dfe8ef;stroke-linecap:round;stroke-linejoin:round;stroke-width:2px;stroke-dasharray:5 6;}.cls-7{opacity:0.56;fill:url(#未命名的渐变_363);}.cls-8{fill:url(#未命名的渐变_29);}.cls-9{fill:url(#未命名的渐变_344);}.cls-10{fill:url(#未命名的渐变_7);}.cls-11{fill:url(#未命名的渐变_324);}.cls-12{fill:url(#未命名的渐变_9);}.cls-13{fill:url(#未命名的渐变_10);}.cls-14{fill:url(#未命名的渐变_363-2);}.cls-15{fill:#fff;}</style><linearGradient id="未命名的渐变_400" x1="224.05" y1="44.44" x2="242.1" y2="44.44" gradientUnits="userSpaceOnUse"><stop offset="0" stop-color="#bae7ff"/><stop offset="1" stop-color="#85daff"/></linearGradient><linearGradient id="未命名的渐变_400-2" x1="224.05" y1="54.07" x2="264.41" y2="54.07" xlink:href="#未命名的渐变_400"/><linearGradient id="未命名的渐变_400-3" x1="-3733.29" y1="130.18" x2="-3715.24" y2="130.18" gradientTransform="matrix(1, 0, 0, -1, 3755.51, 260.35)" xlink:href="#未命名的渐变_400"/><linearGradient id="未命名的渐变_400-4" x1="-3733.29" y1="139.8" x2="-3692.94" y2="139.8" gradientTransform="matrix(1, 0, 0, -1, 3733.29, 279.61)" xlink:href="#未命名的渐变_400"/><linearGradient id="未命名的渐变_363" x1="133.58" y1="168.93" x2="133.58" y2="-18.02" gradientUnits="userSpaceOnUse"><stop offset="0" stop-color="#ff73a9"/><stop offset="1" stop-color="#ffadc9"/></linearGradient><linearGradient id="未命名的渐变_29" x1="133.58" y1="165.93" x2="133.58" y2="1.35" gradientUnits="userSpaceOnUse"><stop offset="0" stop-color="#e7b6f5"/><stop offset="1" stop-color="#b0b6f5"/></linearGradient><linearGradient id="未命名的渐变_344" x1="124.81" y1="162.19" x2="124.81" y2="19.96" gradientUnits="userSpaceOnUse"><stop offset="0" stop-color="#f7f5fa"/><stop offset="1" stop-color="#ddf2f8"/></linearGradient><linearGradient id="未命名的渐变_7" x1="124.81" y1="166.8" x2="124.81" y2="12.02" gradientUnits="userSpaceOnUse"><stop offset="0" stop-color="#60cbf5"/><stop offset="0.3" stop-color="#5cb6f2"/><stop offset="0.73" stop-color="#5c9fef"/><stop offset="1" stop-color="#5e96ee"/></linearGradient><linearGradient id="未命名的渐变_324" x1="95.95" y1="83.98" x2="95.95" y2="192.12" gradientUnits="userSpaceOnUse"><stop offset="0" stop-color="#d2e988"/><stop offset="0.22" stop-color="#bbe69d" stop-opacity="0.78"/><stop offset="0.56" stop-color="#9ce0bd" stop-opacity="0.44"/><stop offset="0.83" stop-color="#8bddd1" stop-opacity="0.17"/><stop offset="1" stop-color="#85dcd9" stop-opacity="0"/></linearGradient><linearGradient id="未命名的渐变_9" x1="134.89" y1="64.44" x2="134.89" y2="164.08" gradientUnits="userSpaceOnUse"><stop offset="0" stop-color="#d2e988"/><stop offset="0.22" stop-color="#bbe69d"/><stop offset="0.56" stop-color="#9ce0bd"/><stop offset="0.83" stop-color="#8bddd1"/><stop offset="1" stop-color="#85dcd9"/></linearGradient><linearGradient id="未命名的渐变_10" x1="75.94" y1="-1451.12" x2="94.49" y2="-1475.25" gradientTransform="matrix(1, 0, 0, -1, 10.18, -1406.63)" gradientUnits="userSpaceOnUse"><stop offset="0" stop-color="#f8d862"/><stop offset="0.3" stop-color="#f6cd5b"/><stop offset="0.86" stop-color="#f2af4a"/><stop offset="1" stop-color="#f1a546"/></linearGradient><linearGradient id="未命名的渐变_363-2" x1="174.99" y1="87.49" x2="174.99" y2="182.43" xlink:href="#未命名的渐变_363"/></defs><title>下载图片</title><g id="图层_2" data-name="图层 2"><g id="图层_1-2" data-name="图层 1"><circle class="cls-1" cx="277.61" cy="71.93" r="5.46"/><circle class="cls-1" cx="27.72" cy="17.37" r="5.46"/><rect class="cls-2" x="224.05" y="41.85" width="18.14" height="5.2" rx="2.6" ry="2.6"/><rect class="cls-3" x="224.05" y="51.47" width="40.36" height="5.2" rx="2.6" ry="2.6"/><rect class="cls-4" x="22.21" y="127.58" width="18.14" height="5.2" rx="2.6" ry="2.6" transform="translate(62.57 260.35) rotate(180)"/><rect class="cls-5" y="137.21" width="40.36" height="5.2" rx="2.6" ry="2.6" transform="translate(40.36 279.61) rotate(180)"/><circle class="cls-6" cx="68.1" cy="59.92" r="58.92"/><circle class="cls-6" cx="217.59" cy="71.93" r="60.02"/><path class="cls-7" d="M192.45,166.13,60,151.45a11.62,11.62,0,0,1-10.26-12.81L61.91,28.78A11.6,11.6,0,0,1,74.72,18.53L207.18,33.21A11.6,11.6,0,0,1,217.43,46L205.26,155.87a11.61,11.61,0,0,1-12.81,10.26Z"/><path class="cls-8" d="M211.43,145.72l-131,24.64a11.6,11.6,0,0,1-13.55-9.26L46.48,52.48a11.59,11.59,0,0,1,9.25-13.54l131-24.64a11.6,11.6,0,0,1,13.55,9.25l20.43,108.62A11.6,11.6,0,0,1,211.43,145.72Z"/><path class="cls-9" d="M191.45,158.47H58.18a11.61,11.61,0,0,1-11.61-11.61V36.34a11.6,11.6,0,0,1,11.61-11.6H191.45a11.6,11.6,0,0,1,11.6,11.6V146.86a11.6,11.6,0,0,1-11.6,11.61Z"/><path class="cls-10" d="M180.58,147.56H69a9.71,9.71,0,0,1-9.71-9.71V45.35A9.71,9.71,0,0,1,69,35.64H180.58a9.72,9.72,0,0,1,9.72,9.71v92.5A9.71,9.71,0,0,1,180.58,147.56Z"/><path class="cls-11" d="M132.58,147.56H69a9.71,9.71,0,0,1-9.71-9.71V122.69L75.45,103.1a13.29,13.29,0,0,1,20.55,0l10,12.2Z"/><path class="cls-12" d="M190.3,113.47v24.38a9.71,9.71,0,0,1-9.72,9.71H79.49L106,115.3l32.61-39.64a13.3,13.3,0,0,1,20.55,0Z"/><circle class="cls-13" cx="93.26" cy="59.09" r="13.77"/><path class="cls-14" d="M216.64,175.53a16.24,16.24,0,0,0,5.92-1.11c5.44-2.15,15.39-7.85,15-20.62-.52-17.26-15.71-20.58-20.89-21.42a1.41,1.41,0,0,1-1.15-1.64c1.08-6,3.46-28.93-21.87-34.87-27.49-6.45-35.06,19.15-35.29,19.87s-1.4.38-1.4.38c-1.89-1.79-10.49-6.86-19-.63-6.62,4.84-4.87,13.34-3.92,16.53a.81.81,0,0,1-.88,1c-4.27-.53-17.76-.79-20.42,16.73-2.22,14.61,6.82,21.37,12.45,24.12a16.14,16.14,0,0,0,7.09,1.62"/><path class="cls-15" d="M198.65,153v-.06s0,0,0,0a1.3,1.3,0,0,0,1.14-2h.07l-.22-.23-.12-.11-23.12-24.3a1.77,1.77,0,0,0-1.36-.68,1.73,1.73,0,0,0-1.32.62l-23.3,24.5a1.17,1.17,0,0,0,.65,2.14v.05h13.15v28.27h21.84V153Z"/></g></g></svg>
